<mxfile host="app.diagrams.net" modified="2023-11-16T17:58:19.289Z" agent="Mozilla/5.0 (Windows NT 10.0; Win64; x64; rv:109.0) Gecko/20100101 Firefox/118.0" etag="zb_DVz-xYsbxycJpGYr1" version="21.8.0" type="github">
  <diagram name="Page-1" id="P0r75sNN5x2hzDNqAm3I">
    <mxGraphModel dx="1735" dy="2102" grid="1" gridSize="10" guides="1" tooltips="1" connect="1" arrows="1" fold="1" page="1" pageScale="1" pageWidth="850" pageHeight="1100" math="0" shadow="0">
      <root>
        <mxCell id="0" />
        <mxCell id="1" parent="0" />
        <mxCell id="juT-ESsIJ_UsiJBfhcRe-1" value="frame" style="shape=umlFrame;whiteSpace=wrap;html=1;rounded=0;shadow=0;comic=0;labelBackgroundColor=none;strokeWidth=1;fontFamily=Verdana;fontSize=10;align=center;" vertex="1" parent="1">
          <mxGeometry x="40" y="-1080" width="840" height="1070" as="geometry" />
        </mxCell>
        <mxCell id="juT-ESsIJ_UsiJBfhcRe-41" value="&lt;div&gt;EmployeeAndProductionWorker&lt;/div&gt;" style="swimlane;fontStyle=0;childLayout=stackLayout;horizontal=1;startSize=30;horizontalStack=0;resizeParent=1;resizeParentMax=0;resizeLast=0;collapsible=1;marginBottom=0;whiteSpace=wrap;html=1;" vertex="1" parent="1">
          <mxGeometry x="80" y="-1020" width="200" height="60" as="geometry" />
        </mxCell>
        <mxCell id="juT-ESsIJ_UsiJBfhcRe-42" value="&amp;nbsp;+ main(args:String[]):void" style="text;strokeColor=none;fillColor=none;align=left;verticalAlign=middle;spacingLeft=4;spacingRight=4;overflow=hidden;points=[[0,0.5],[1,0.5]];portConstraint=eastwest;rotatable=0;whiteSpace=wrap;html=1;" vertex="1" parent="juT-ESsIJ_UsiJBfhcRe-41">
          <mxGeometry y="30" width="200" height="30" as="geometry" />
        </mxCell>
        <mxCell id="juT-ESsIJ_UsiJBfhcRe-44" value="Employee()" style="rounded=1;whiteSpace=wrap;html=1;" vertex="1" parent="1">
          <mxGeometry x="940" y="-1035" width="120" height="60" as="geometry" />
        </mxCell>
        <mxCell id="juT-ESsIJ_UsiJBfhcRe-46" value="" style="endArrow=classic;html=1;rounded=0;entryX=0.5;entryY=0;entryDx=0;entryDy=0;" edge="1" parent="1" source="juT-ESsIJ_UsiJBfhcRe-44" target="juT-ESsIJ_UsiJBfhcRe-48">
          <mxGeometry width="50" height="50" relative="1" as="geometry">
            <mxPoint x="990" y="-925" as="sourcePoint" />
            <mxPoint x="1000" y="-915" as="targetPoint" />
            <Array as="points" />
          </mxGeometry>
        </mxCell>
        <mxCell id="juT-ESsIJ_UsiJBfhcRe-47" value="" style="edgeStyle=orthogonalEdgeStyle;rounded=0;orthogonalLoop=1;jettySize=auto;html=1;" edge="1" parent="1" source="juT-ESsIJ_UsiJBfhcRe-48">
          <mxGeometry relative="1" as="geometry">
            <mxPoint x="1000" y="-720" as="targetPoint" />
          </mxGeometry>
        </mxCell>
        <mxCell id="juT-ESsIJ_UsiJBfhcRe-48" value="print message" style="shape=parallelogram;perimeter=parallelogramPerimeter;whiteSpace=wrap;html=1;fixedSize=1;" vertex="1" parent="1">
          <mxGeometry x="940" y="-815" width="120" height="60" as="geometry" />
        </mxCell>
        <mxCell id="juT-ESsIJ_UsiJBfhcRe-78" style="edgeStyle=orthogonalEdgeStyle;rounded=0;orthogonalLoop=1;jettySize=auto;html=1;exitX=0.5;exitY=1;exitDx=0;exitDy=0;entryX=0.5;entryY=0;entryDx=0;entryDy=0;" edge="1" parent="1" source="juT-ESsIJ_UsiJBfhcRe-52" target="juT-ESsIJ_UsiJBfhcRe-70">
          <mxGeometry relative="1" as="geometry" />
        </mxCell>
        <mxCell id="juT-ESsIJ_UsiJBfhcRe-52" value="getName()" style="rounded=1;whiteSpace=wrap;html=1;" vertex="1" parent="1">
          <mxGeometry x="1100" y="-1035" width="120" height="60" as="geometry" />
        </mxCell>
        <mxCell id="juT-ESsIJ_UsiJBfhcRe-56" value="&lt;p style=&quot;margin:0px;margin-top:4px;text-align:center;&quot;&gt;Employee&lt;br&gt;&lt;/p&gt;&lt;hr size=&quot;1&quot;&gt;&lt;p style=&quot;margin:0px;margin-left:4px;&quot;&gt;- name : String&lt;/p&gt;&lt;p style=&quot;margin:0px;margin-left:4px;&quot;&gt;- id : String&lt;/p&gt;&lt;p style=&quot;margin:0px;margin-left:4px;&quot;&gt;- hireDate: String&lt;br&gt;&lt;/p&gt;&lt;hr size=&quot;1&quot;&gt;&lt;div&gt;+ Employee(newName:String, newId:String, newHireDate:String)&lt;/div&gt;&lt;div&gt;+ getName():String&lt;/div&gt;&lt;div&gt;+ getId():String&lt;/div&gt;&lt;div&gt;+ getHireDate():String&lt;/div&gt;&lt;div&gt;+ setName(newName:String):void&lt;/div&gt;&lt;div&gt;+ setId(newId:String):void&lt;/div&gt;&lt;div&gt;+ setHireDate(newHireDate:String):void&lt;br&gt;&lt;/div&gt;" style="verticalAlign=top;align=left;overflow=fill;fontSize=12;fontFamily=Helvetica;html=1;rounded=0;shadow=0;comic=0;labelBackgroundColor=none;strokeWidth=1" vertex="1" parent="1">
          <mxGeometry x="80" y="-940" width="400" height="200" as="geometry" />
        </mxCell>
        <mxCell id="juT-ESsIJ_UsiJBfhcRe-57" value="&lt;p style=&quot;margin:0px;margin-top:4px;text-align:center;&quot;&gt;ProductionWorker&lt;br&gt;&lt;/p&gt;&lt;hr size=&quot;1&quot;&gt;&lt;p style=&quot;margin:0px;margin-left:4px;&quot;&gt;- shift : int&lt;br&gt;&lt;/p&gt;&lt;p style=&quot;margin:0px;margin-left:4px;&quot;&gt;- payRate: double&lt;br&gt;&lt;/p&gt;&lt;hr size=&quot;1&quot;&gt;&lt;div&gt;+ ProductionWorker(newShift:int, newPayRate:double)&lt;/div&gt;&lt;div&gt;+ getShift():int&lt;/div&gt;&lt;div&gt;+ getPayRate():double&lt;/div&gt;&lt;div&gt;+ setShift(newShift:int):void&lt;/div&gt;&lt;div&gt;+ setId(newId:String):void&lt;/div&gt;" style="verticalAlign=top;align=left;overflow=fill;fontSize=12;fontFamily=Helvetica;html=1;rounded=0;shadow=0;comic=0;labelBackgroundColor=none;strokeWidth=1" vertex="1" parent="1">
          <mxGeometry x="80" y="-500" width="360" height="160" as="geometry" />
        </mxCell>
        <mxCell id="juT-ESsIJ_UsiJBfhcRe-60" style="edgeStyle=orthogonalEdgeStyle;rounded=0;orthogonalLoop=1;jettySize=auto;html=1;entryX=0.75;entryY=1;entryDx=0;entryDy=0;" edge="1" parent="1" source="juT-ESsIJ_UsiJBfhcRe-58" target="juT-ESsIJ_UsiJBfhcRe-56">
          <mxGeometry relative="1" as="geometry" />
        </mxCell>
        <mxCell id="juT-ESsIJ_UsiJBfhcRe-58" value="&lt;p style=&quot;margin:0px;margin-top:4px;text-align:center;&quot;&gt;ShiftSupervisor&lt;br&gt;&lt;/p&gt;&lt;hr size=&quot;1&quot;&gt;&lt;div&gt;- salary:double&lt;/div&gt;&lt;div&gt;- bonus:double&lt;br&gt;&lt;/div&gt;&lt;hr size=&quot;1&quot;&gt;&lt;div&gt;+ ShiftSupervisor(newName:String, newId:String, newHireDate:String, newSalary:double, newBonus:double)&lt;/div&gt;&lt;div&gt;+ getSalary():double&lt;/div&gt;&lt;div&gt;+ getBonus():double&lt;/div&gt;&lt;div&gt;+ setSalary(newSalary:double):void&lt;/div&gt;&lt;div&gt;+ setNewBonus(newBonus:double):void&lt;/div&gt;" style="verticalAlign=top;align=left;overflow=fill;fontSize=12;fontFamily=Helvetica;html=1;rounded=0;shadow=0;comic=0;labelBackgroundColor=none;strokeWidth=1" vertex="1" parent="1">
          <mxGeometry x="80" y="-700" width="660" height="160" as="geometry" />
        </mxCell>
        <mxCell id="juT-ESsIJ_UsiJBfhcRe-62" style="edgeStyle=orthogonalEdgeStyle;rounded=0;orthogonalLoop=1;jettySize=auto;html=1;" edge="1" parent="1" source="juT-ESsIJ_UsiJBfhcRe-61" target="juT-ESsIJ_UsiJBfhcRe-57">
          <mxGeometry relative="1" as="geometry" />
        </mxCell>
        <mxCell id="juT-ESsIJ_UsiJBfhcRe-61" value="&lt;p style=&quot;margin:0px;margin-top:4px;text-align:center;&quot;&gt;TeamLeader&lt;br&gt;&lt;/p&gt;&lt;hr size=&quot;1&quot;&gt;&lt;p style=&quot;margin:0px;margin-left:4px;&quot;&gt;- mBonus : double&lt;br&gt;&lt;/p&gt;&lt;p style=&quot;margin:0px;margin-left:4px;&quot;&gt;- trainingReq: double&lt;/p&gt;&lt;p style=&quot;margin:0px;margin-left:4px;&quot;&gt;- trainingComplete : double&lt;br&gt;&lt;/p&gt;&lt;hr size=&quot;1&quot;&gt;&lt;div&gt;+ TeamLeader(newShift:int, newPayRate:double, newMBonus:double, newTrainingReq:double, newTrainingComplete:double)&lt;/div&gt;&lt;div&gt;+ getMBonus():double&lt;/div&gt;&lt;div&gt;+ getTrainingReq():double&lt;/div&gt;&lt;div&gt;+ getTrainingComplete():double&lt;br&gt;&lt;/div&gt;&lt;div&gt;+ setMBonus(newMBonus:double):void&lt;/div&gt;&lt;div&gt;+ setTrainingReq(newTrainingReq:double):void&lt;/div&gt;&lt;div&gt;+ setTrianingComplete(newTrainingComplete:double):void&lt;br&gt;&lt;/div&gt;" style="verticalAlign=top;align=left;overflow=fill;fontSize=12;fontFamily=Helvetica;html=1;rounded=0;shadow=0;comic=0;labelBackgroundColor=none;strokeWidth=1" vertex="1" parent="1">
          <mxGeometry x="80" y="-300" width="760" height="200" as="geometry" />
        </mxCell>
        <mxCell id="juT-ESsIJ_UsiJBfhcRe-80" style="edgeStyle=orthogonalEdgeStyle;rounded=0;orthogonalLoop=1;jettySize=auto;html=1;exitX=0.5;exitY=1;exitDx=0;exitDy=0;entryX=1;entryY=0.75;entryDx=0;entryDy=0;" edge="1" parent="1" source="juT-ESsIJ_UsiJBfhcRe-69" target="juT-ESsIJ_UsiJBfhcRe-48">
          <mxGeometry relative="1" as="geometry" />
        </mxCell>
        <mxCell id="juT-ESsIJ_UsiJBfhcRe-69" value="getHireDate()" style="rounded=1;whiteSpace=wrap;html=1;" vertex="1" parent="1">
          <mxGeometry x="1100" y="-870" width="120" height="60" as="geometry" />
        </mxCell>
        <mxCell id="juT-ESsIJ_UsiJBfhcRe-79" style="edgeStyle=orthogonalEdgeStyle;rounded=0;orthogonalLoop=1;jettySize=auto;html=1;exitX=0.5;exitY=1;exitDx=0;exitDy=0;entryX=0.5;entryY=0;entryDx=0;entryDy=0;" edge="1" parent="1" source="juT-ESsIJ_UsiJBfhcRe-70" target="juT-ESsIJ_UsiJBfhcRe-69">
          <mxGeometry relative="1" as="geometry" />
        </mxCell>
        <mxCell id="juT-ESsIJ_UsiJBfhcRe-70" value="getId()" style="rounded=1;whiteSpace=wrap;html=1;" vertex="1" parent="1">
          <mxGeometry x="1100" y="-950" width="120" height="60" as="geometry" />
        </mxCell>
        <mxCell id="juT-ESsIJ_UsiJBfhcRe-76" style="edgeStyle=orthogonalEdgeStyle;rounded=0;orthogonalLoop=1;jettySize=auto;html=1;exitX=1;exitY=0.5;exitDx=0;exitDy=0;entryX=0;entryY=0.5;entryDx=0;entryDy=0;" edge="1" parent="1" source="juT-ESsIJ_UsiJBfhcRe-73" target="juT-ESsIJ_UsiJBfhcRe-75">
          <mxGeometry relative="1" as="geometry" />
        </mxCell>
        <mxCell id="juT-ESsIJ_UsiJBfhcRe-73" value="setName()" style="rounded=1;whiteSpace=wrap;html=1;" vertex="1" parent="1">
          <mxGeometry x="940" y="-720" width="120" height="60" as="geometry" />
        </mxCell>
        <mxCell id="juT-ESsIJ_UsiJBfhcRe-81" style="edgeStyle=orthogonalEdgeStyle;rounded=0;orthogonalLoop=1;jettySize=auto;html=1;" edge="1" parent="1" source="juT-ESsIJ_UsiJBfhcRe-74">
          <mxGeometry relative="1" as="geometry">
            <mxPoint x="1280" y="-630" as="targetPoint" />
          </mxGeometry>
        </mxCell>
        <mxCell id="juT-ESsIJ_UsiJBfhcRe-74" value="setName()" style="rounded=1;whiteSpace=wrap;html=1;" vertex="1" parent="1">
          <mxGeometry x="1220" y="-720" width="120" height="60" as="geometry" />
        </mxCell>
        <mxCell id="juT-ESsIJ_UsiJBfhcRe-77" style="edgeStyle=orthogonalEdgeStyle;rounded=0;orthogonalLoop=1;jettySize=auto;html=1;exitX=1;exitY=0.5;exitDx=0;exitDy=0;entryX=0;entryY=0.5;entryDx=0;entryDy=0;" edge="1" parent="1" source="juT-ESsIJ_UsiJBfhcRe-75" target="juT-ESsIJ_UsiJBfhcRe-74">
          <mxGeometry relative="1" as="geometry" />
        </mxCell>
        <mxCell id="juT-ESsIJ_UsiJBfhcRe-75" value="setId()" style="rounded=1;whiteSpace=wrap;html=1;" vertex="1" parent="1">
          <mxGeometry x="1080" y="-720" width="120" height="60" as="geometry" />
        </mxCell>
        <mxCell id="juT-ESsIJ_UsiJBfhcRe-86" style="edgeStyle=orthogonalEdgeStyle;rounded=0;orthogonalLoop=1;jettySize=auto;html=1;exitX=0;exitY=0.5;exitDx=0;exitDy=0;entryX=1;entryY=0.5;entryDx=0;entryDy=0;" edge="1" parent="1" source="juT-ESsIJ_UsiJBfhcRe-82" target="juT-ESsIJ_UsiJBfhcRe-84">
          <mxGeometry relative="1" as="geometry" />
        </mxCell>
        <mxCell id="juT-ESsIJ_UsiJBfhcRe-82" value="getName()" style="rounded=1;whiteSpace=wrap;html=1;" vertex="1" parent="1">
          <mxGeometry x="1220" y="-630" width="120" height="60" as="geometry" />
        </mxCell>
        <mxCell id="juT-ESsIJ_UsiJBfhcRe-87" style="edgeStyle=orthogonalEdgeStyle;rounded=0;orthogonalLoop=1;jettySize=auto;html=1;exitX=0;exitY=0.5;exitDx=0;exitDy=0;entryX=1;entryY=0.5;entryDx=0;entryDy=0;" edge="1" parent="1" source="juT-ESsIJ_UsiJBfhcRe-84" target="juT-ESsIJ_UsiJBfhcRe-85">
          <mxGeometry relative="1" as="geometry" />
        </mxCell>
        <mxCell id="juT-ESsIJ_UsiJBfhcRe-84" value="getId()" style="rounded=1;whiteSpace=wrap;html=1;" vertex="1" parent="1">
          <mxGeometry x="1080" y="-630" width="120" height="60" as="geometry" />
        </mxCell>
        <mxCell id="juT-ESsIJ_UsiJBfhcRe-88" style="edgeStyle=orthogonalEdgeStyle;rounded=0;orthogonalLoop=1;jettySize=auto;html=1;exitX=0.5;exitY=1;exitDx=0;exitDy=0;" edge="1" parent="1" source="juT-ESsIJ_UsiJBfhcRe-85">
          <mxGeometry relative="1" as="geometry">
            <mxPoint x="1000.1764705882356" y="-540" as="targetPoint" />
          </mxGeometry>
        </mxCell>
        <mxCell id="juT-ESsIJ_UsiJBfhcRe-85" value="getHireDate()" style="rounded=1;whiteSpace=wrap;html=1;" vertex="1" parent="1">
          <mxGeometry x="940" y="-630" width="120" height="60" as="geometry" />
        </mxCell>
        <mxCell id="juT-ESsIJ_UsiJBfhcRe-197" style="edgeStyle=orthogonalEdgeStyle;rounded=0;orthogonalLoop=1;jettySize=auto;html=1;exitX=1;exitY=0.5;exitDx=0;exitDy=0;entryX=0;entryY=0.5;entryDx=0;entryDy=0;" edge="1" parent="1" source="juT-ESsIJ_UsiJBfhcRe-89" target="juT-ESsIJ_UsiJBfhcRe-90">
          <mxGeometry relative="1" as="geometry">
            <Array as="points">
              <mxPoint x="1350" y="-510" />
              <mxPoint x="1350" y="-1010" />
            </Array>
          </mxGeometry>
        </mxCell>
        <mxCell id="juT-ESsIJ_UsiJBfhcRe-89" value="print message" style="shape=parallelogram;perimeter=parallelogramPerimeter;whiteSpace=wrap;html=1;fixedSize=1;" vertex="1" parent="1">
          <mxGeometry x="930" y="-540" width="120" height="60" as="geometry" />
        </mxCell>
        <mxCell id="juT-ESsIJ_UsiJBfhcRe-90" value="&lt;div&gt;ShiftSupervisor()&lt;/div&gt;" style="rounded=1;whiteSpace=wrap;html=1;" vertex="1" parent="1">
          <mxGeometry x="1375" y="-1040" width="120" height="60" as="geometry" />
        </mxCell>
        <mxCell id="juT-ESsIJ_UsiJBfhcRe-91" value="" style="endArrow=classic;html=1;rounded=0;entryX=0.5;entryY=0;entryDx=0;entryDy=0;" edge="1" parent="1" source="juT-ESsIJ_UsiJBfhcRe-90" target="juT-ESsIJ_UsiJBfhcRe-93">
          <mxGeometry width="50" height="50" relative="1" as="geometry">
            <mxPoint x="1425" y="-930" as="sourcePoint" />
            <mxPoint x="1435" y="-920" as="targetPoint" />
            <Array as="points" />
          </mxGeometry>
        </mxCell>
        <mxCell id="juT-ESsIJ_UsiJBfhcRe-92" value="" style="edgeStyle=orthogonalEdgeStyle;rounded=0;orthogonalLoop=1;jettySize=auto;html=1;" edge="1" parent="1" source="juT-ESsIJ_UsiJBfhcRe-93">
          <mxGeometry relative="1" as="geometry">
            <mxPoint x="1435" y="-725" as="targetPoint" />
          </mxGeometry>
        </mxCell>
        <mxCell id="juT-ESsIJ_UsiJBfhcRe-93" value="print message" style="shape=parallelogram;perimeter=parallelogramPerimeter;whiteSpace=wrap;html=1;fixedSize=1;" vertex="1" parent="1">
          <mxGeometry x="1375" y="-820" width="120" height="60" as="geometry" />
        </mxCell>
        <mxCell id="juT-ESsIJ_UsiJBfhcRe-116" style="edgeStyle=orthogonalEdgeStyle;rounded=0;orthogonalLoop=1;jettySize=auto;html=1;exitX=1;exitY=0.5;exitDx=0;exitDy=0;entryX=0;entryY=0.5;entryDx=0;entryDy=0;" edge="1" parent="1" source="juT-ESsIJ_UsiJBfhcRe-95" target="juT-ESsIJ_UsiJBfhcRe-99">
          <mxGeometry relative="1" as="geometry" />
        </mxCell>
        <mxCell id="juT-ESsIJ_UsiJBfhcRe-95" value="getName()" style="rounded=1;whiteSpace=wrap;html=1;" vertex="1" parent="1">
          <mxGeometry x="1535" y="-1040" width="120" height="60" as="geometry" />
        </mxCell>
        <mxCell id="juT-ESsIJ_UsiJBfhcRe-120" style="edgeStyle=orthogonalEdgeStyle;rounded=0;orthogonalLoop=1;jettySize=auto;html=1;exitX=0;exitY=0.5;exitDx=0;exitDy=0;entryX=1;entryY=0.5;entryDx=0;entryDy=0;" edge="1" parent="1" source="juT-ESsIJ_UsiJBfhcRe-97" target="juT-ESsIJ_UsiJBfhcRe-118">
          <mxGeometry relative="1" as="geometry" />
        </mxCell>
        <mxCell id="juT-ESsIJ_UsiJBfhcRe-97" value="getHireDate()" style="rounded=1;whiteSpace=wrap;html=1;" vertex="1" parent="1">
          <mxGeometry x="1680" y="-960" width="120" height="60" as="geometry" />
        </mxCell>
        <mxCell id="juT-ESsIJ_UsiJBfhcRe-117" style="edgeStyle=orthogonalEdgeStyle;rounded=0;orthogonalLoop=1;jettySize=auto;html=1;exitX=0.5;exitY=1;exitDx=0;exitDy=0;entryX=0.5;entryY=0;entryDx=0;entryDy=0;" edge="1" parent="1" source="juT-ESsIJ_UsiJBfhcRe-99" target="juT-ESsIJ_UsiJBfhcRe-97">
          <mxGeometry relative="1" as="geometry" />
        </mxCell>
        <mxCell id="juT-ESsIJ_UsiJBfhcRe-99" value="getId()" style="rounded=1;whiteSpace=wrap;html=1;" vertex="1" parent="1">
          <mxGeometry x="1680" y="-1040" width="120" height="60" as="geometry" />
        </mxCell>
        <mxCell id="juT-ESsIJ_UsiJBfhcRe-100" style="edgeStyle=orthogonalEdgeStyle;rounded=0;orthogonalLoop=1;jettySize=auto;html=1;exitX=1;exitY=0.5;exitDx=0;exitDy=0;entryX=0;entryY=0.5;entryDx=0;entryDy=0;" edge="1" parent="1" source="juT-ESsIJ_UsiJBfhcRe-101" target="juT-ESsIJ_UsiJBfhcRe-105">
          <mxGeometry relative="1" as="geometry" />
        </mxCell>
        <mxCell id="juT-ESsIJ_UsiJBfhcRe-101" value="setName()" style="rounded=1;whiteSpace=wrap;html=1;" vertex="1" parent="1">
          <mxGeometry x="1375" y="-725" width="120" height="60" as="geometry" />
        </mxCell>
        <mxCell id="juT-ESsIJ_UsiJBfhcRe-127" style="edgeStyle=orthogonalEdgeStyle;rounded=0;orthogonalLoop=1;jettySize=auto;html=1;exitX=1;exitY=0.5;exitDx=0;exitDy=0;entryX=0;entryY=0.5;entryDx=0;entryDy=0;" edge="1" parent="1" source="juT-ESsIJ_UsiJBfhcRe-103" target="juT-ESsIJ_UsiJBfhcRe-123">
          <mxGeometry relative="1" as="geometry" />
        </mxCell>
        <mxCell id="juT-ESsIJ_UsiJBfhcRe-103" value="setName()" style="rounded=1;whiteSpace=wrap;html=1;" vertex="1" parent="1">
          <mxGeometry x="1655" y="-725" width="120" height="60" as="geometry" />
        </mxCell>
        <mxCell id="juT-ESsIJ_UsiJBfhcRe-104" style="edgeStyle=orthogonalEdgeStyle;rounded=0;orthogonalLoop=1;jettySize=auto;html=1;exitX=1;exitY=0.5;exitDx=0;exitDy=0;entryX=0;entryY=0.5;entryDx=0;entryDy=0;" edge="1" parent="1" source="juT-ESsIJ_UsiJBfhcRe-105" target="juT-ESsIJ_UsiJBfhcRe-103">
          <mxGeometry relative="1" as="geometry" />
        </mxCell>
        <mxCell id="juT-ESsIJ_UsiJBfhcRe-105" value="setId()" style="rounded=1;whiteSpace=wrap;html=1;" vertex="1" parent="1">
          <mxGeometry x="1515" y="-725" width="120" height="60" as="geometry" />
        </mxCell>
        <mxCell id="juT-ESsIJ_UsiJBfhcRe-106" style="edgeStyle=orthogonalEdgeStyle;rounded=0;orthogonalLoop=1;jettySize=auto;html=1;exitX=0;exitY=0.5;exitDx=0;exitDy=0;entryX=1;entryY=0.5;entryDx=0;entryDy=0;" edge="1" parent="1" source="juT-ESsIJ_UsiJBfhcRe-107" target="juT-ESsIJ_UsiJBfhcRe-109">
          <mxGeometry relative="1" as="geometry" />
        </mxCell>
        <mxCell id="juT-ESsIJ_UsiJBfhcRe-107" value="getName()" style="rounded=1;whiteSpace=wrap;html=1;" vertex="1" parent="1">
          <mxGeometry x="1940" y="-635" width="120" height="60" as="geometry" />
        </mxCell>
        <mxCell id="juT-ESsIJ_UsiJBfhcRe-108" style="edgeStyle=orthogonalEdgeStyle;rounded=0;orthogonalLoop=1;jettySize=auto;html=1;exitX=0;exitY=0.5;exitDx=0;exitDy=0;entryX=1;entryY=0.5;entryDx=0;entryDy=0;" edge="1" parent="1" source="juT-ESsIJ_UsiJBfhcRe-109" target="juT-ESsIJ_UsiJBfhcRe-111">
          <mxGeometry relative="1" as="geometry" />
        </mxCell>
        <mxCell id="juT-ESsIJ_UsiJBfhcRe-109" value="getId()" style="rounded=1;whiteSpace=wrap;html=1;" vertex="1" parent="1">
          <mxGeometry x="1800" y="-635" width="120" height="60" as="geometry" />
        </mxCell>
        <mxCell id="juT-ESsIJ_UsiJBfhcRe-130" style="edgeStyle=orthogonalEdgeStyle;rounded=0;orthogonalLoop=1;jettySize=auto;html=1;exitX=0;exitY=0.5;exitDx=0;exitDy=0;entryX=1;entryY=0.5;entryDx=0;entryDy=0;" edge="1" parent="1" source="juT-ESsIJ_UsiJBfhcRe-111" target="juT-ESsIJ_UsiJBfhcRe-126">
          <mxGeometry relative="1" as="geometry" />
        </mxCell>
        <mxCell id="juT-ESsIJ_UsiJBfhcRe-111" value="getHireDate()" style="rounded=1;whiteSpace=wrap;html=1;" vertex="1" parent="1">
          <mxGeometry x="1660" y="-635" width="120" height="60" as="geometry" />
        </mxCell>
        <mxCell id="juT-ESsIJ_UsiJBfhcRe-198" style="edgeStyle=orthogonalEdgeStyle;rounded=0;orthogonalLoop=1;jettySize=auto;html=1;exitX=0.5;exitY=1;exitDx=0;exitDy=0;" edge="1" parent="1" source="juT-ESsIJ_UsiJBfhcRe-112" target="juT-ESsIJ_UsiJBfhcRe-133">
          <mxGeometry relative="1" as="geometry" />
        </mxCell>
        <mxCell id="juT-ESsIJ_UsiJBfhcRe-112" value="print message" style="shape=parallelogram;perimeter=parallelogramPerimeter;whiteSpace=wrap;html=1;fixedSize=1;" vertex="1" parent="1">
          <mxGeometry x="1375" y="-540" width="120" height="60" as="geometry" />
        </mxCell>
        <mxCell id="juT-ESsIJ_UsiJBfhcRe-121" style="edgeStyle=orthogonalEdgeStyle;rounded=0;orthogonalLoop=1;jettySize=auto;html=1;exitX=0.5;exitY=1;exitDx=0;exitDy=0;entryX=0.5;entryY=0;entryDx=0;entryDy=0;" edge="1" parent="1" source="juT-ESsIJ_UsiJBfhcRe-118" target="juT-ESsIJ_UsiJBfhcRe-119">
          <mxGeometry relative="1" as="geometry" />
        </mxCell>
        <mxCell id="juT-ESsIJ_UsiJBfhcRe-118" value="getSalary()" style="rounded=1;whiteSpace=wrap;html=1;" vertex="1" parent="1">
          <mxGeometry x="1535" y="-960" width="120" height="60" as="geometry" />
        </mxCell>
        <mxCell id="juT-ESsIJ_UsiJBfhcRe-122" style="edgeStyle=orthogonalEdgeStyle;rounded=0;orthogonalLoop=1;jettySize=auto;html=1;exitX=0.5;exitY=1;exitDx=0;exitDy=0;entryX=1;entryY=0.5;entryDx=0;entryDy=0;" edge="1" parent="1" source="juT-ESsIJ_UsiJBfhcRe-119" target="juT-ESsIJ_UsiJBfhcRe-93">
          <mxGeometry relative="1" as="geometry" />
        </mxCell>
        <mxCell id="juT-ESsIJ_UsiJBfhcRe-119" value="getBonus()" style="rounded=1;whiteSpace=wrap;html=1;" vertex="1" parent="1">
          <mxGeometry x="1535" y="-880" width="120" height="60" as="geometry" />
        </mxCell>
        <mxCell id="juT-ESsIJ_UsiJBfhcRe-128" style="edgeStyle=orthogonalEdgeStyle;rounded=0;orthogonalLoop=1;jettySize=auto;html=1;exitX=1;exitY=0.5;exitDx=0;exitDy=0;entryX=0;entryY=0.5;entryDx=0;entryDy=0;" edge="1" parent="1" source="juT-ESsIJ_UsiJBfhcRe-123" target="juT-ESsIJ_UsiJBfhcRe-124">
          <mxGeometry relative="1" as="geometry" />
        </mxCell>
        <mxCell id="juT-ESsIJ_UsiJBfhcRe-123" value="setSalary()" style="rounded=1;whiteSpace=wrap;html=1;" vertex="1" parent="1">
          <mxGeometry x="1800" y="-725" width="120" height="60" as="geometry" />
        </mxCell>
        <mxCell id="juT-ESsIJ_UsiJBfhcRe-129" style="edgeStyle=orthogonalEdgeStyle;rounded=0;orthogonalLoop=1;jettySize=auto;html=1;exitX=0.5;exitY=1;exitDx=0;exitDy=0;entryX=0.5;entryY=0;entryDx=0;entryDy=0;" edge="1" parent="1" source="juT-ESsIJ_UsiJBfhcRe-124" target="juT-ESsIJ_UsiJBfhcRe-107">
          <mxGeometry relative="1" as="geometry" />
        </mxCell>
        <mxCell id="juT-ESsIJ_UsiJBfhcRe-124" value="setBonus()" style="rounded=1;whiteSpace=wrap;html=1;" vertex="1" parent="1">
          <mxGeometry x="1940" y="-725" width="120" height="60" as="geometry" />
        </mxCell>
        <mxCell id="juT-ESsIJ_UsiJBfhcRe-132" style="edgeStyle=orthogonalEdgeStyle;rounded=0;orthogonalLoop=1;jettySize=auto;html=1;exitX=0.5;exitY=1;exitDx=0;exitDy=0;" edge="1" parent="1" source="juT-ESsIJ_UsiJBfhcRe-125" target="juT-ESsIJ_UsiJBfhcRe-112">
          <mxGeometry relative="1" as="geometry" />
        </mxCell>
        <mxCell id="juT-ESsIJ_UsiJBfhcRe-125" value="getBonus()" style="rounded=1;whiteSpace=wrap;html=1;" vertex="1" parent="1">
          <mxGeometry x="1375" y="-635" width="120" height="60" as="geometry" />
        </mxCell>
        <mxCell id="juT-ESsIJ_UsiJBfhcRe-131" style="edgeStyle=orthogonalEdgeStyle;rounded=0;orthogonalLoop=1;jettySize=auto;html=1;exitX=0;exitY=0.5;exitDx=0;exitDy=0;" edge="1" parent="1" source="juT-ESsIJ_UsiJBfhcRe-126" target="juT-ESsIJ_UsiJBfhcRe-125">
          <mxGeometry relative="1" as="geometry" />
        </mxCell>
        <mxCell id="juT-ESsIJ_UsiJBfhcRe-126" value="getSalary()" style="rounded=1;whiteSpace=wrap;html=1;" vertex="1" parent="1">
          <mxGeometry x="1515" y="-635" width="120" height="60" as="geometry" />
        </mxCell>
        <mxCell id="juT-ESsIJ_UsiJBfhcRe-133" value="ProductionWorker()" style="rounded=1;whiteSpace=wrap;html=1;" vertex="1" parent="1">
          <mxGeometry x="950" y="-440" width="120" height="60" as="geometry" />
        </mxCell>
        <mxCell id="juT-ESsIJ_UsiJBfhcRe-134" value="" style="endArrow=classic;html=1;rounded=0;entryX=0.5;entryY=0;entryDx=0;entryDy=0;" edge="1" parent="1" source="juT-ESsIJ_UsiJBfhcRe-133" target="juT-ESsIJ_UsiJBfhcRe-136">
          <mxGeometry width="50" height="50" relative="1" as="geometry">
            <mxPoint x="1000" y="-330" as="sourcePoint" />
            <mxPoint x="1010" y="-320" as="targetPoint" />
            <Array as="points" />
          </mxGeometry>
        </mxCell>
        <mxCell id="juT-ESsIJ_UsiJBfhcRe-156" style="edgeStyle=orthogonalEdgeStyle;rounded=0;orthogonalLoop=1;jettySize=auto;html=1;exitX=0.5;exitY=1;exitDx=0;exitDy=0;" edge="1" parent="1" source="juT-ESsIJ_UsiJBfhcRe-136" target="juT-ESsIJ_UsiJBfhcRe-144">
          <mxGeometry relative="1" as="geometry" />
        </mxCell>
        <mxCell id="juT-ESsIJ_UsiJBfhcRe-136" value="print message" style="shape=parallelogram;perimeter=parallelogramPerimeter;whiteSpace=wrap;html=1;fixedSize=1;" vertex="1" parent="1">
          <mxGeometry x="950" y="-350" width="120" height="60" as="geometry" />
        </mxCell>
        <mxCell id="juT-ESsIJ_UsiJBfhcRe-137" style="edgeStyle=orthogonalEdgeStyle;rounded=0;orthogonalLoop=1;jettySize=auto;html=1;exitX=0.5;exitY=1;exitDx=0;exitDy=0;entryX=0.5;entryY=0;entryDx=0;entryDy=0;" edge="1" parent="1" source="juT-ESsIJ_UsiJBfhcRe-138" target="juT-ESsIJ_UsiJBfhcRe-142">
          <mxGeometry relative="1" as="geometry" />
        </mxCell>
        <mxCell id="juT-ESsIJ_UsiJBfhcRe-138" value="getShift()" style="rounded=1;whiteSpace=wrap;html=1;" vertex="1" parent="1">
          <mxGeometry x="1090" y="-440" width="120" height="60" as="geometry" />
        </mxCell>
        <mxCell id="juT-ESsIJ_UsiJBfhcRe-155" style="edgeStyle=orthogonalEdgeStyle;rounded=0;orthogonalLoop=1;jettySize=auto;html=1;entryX=1;entryY=0.5;entryDx=0;entryDy=0;" edge="1" parent="1" source="juT-ESsIJ_UsiJBfhcRe-142" target="juT-ESsIJ_UsiJBfhcRe-136">
          <mxGeometry relative="1" as="geometry" />
        </mxCell>
        <mxCell id="juT-ESsIJ_UsiJBfhcRe-142" value="getPayRate()" style="rounded=1;whiteSpace=wrap;html=1;" vertex="1" parent="1">
          <mxGeometry x="1090" y="-350" width="120" height="60" as="geometry" />
        </mxCell>
        <mxCell id="juT-ESsIJ_UsiJBfhcRe-143" style="edgeStyle=orthogonalEdgeStyle;rounded=0;orthogonalLoop=1;jettySize=auto;html=1;exitX=1;exitY=0.5;exitDx=0;exitDy=0;entryX=0;entryY=0.5;entryDx=0;entryDy=0;" edge="1" parent="1" source="juT-ESsIJ_UsiJBfhcRe-144" target="juT-ESsIJ_UsiJBfhcRe-147">
          <mxGeometry relative="1" as="geometry" />
        </mxCell>
        <mxCell id="juT-ESsIJ_UsiJBfhcRe-144" value="setPayRate()" style="rounded=1;whiteSpace=wrap;html=1;" vertex="1" parent="1">
          <mxGeometry x="950" y="-250" width="120" height="60" as="geometry" />
        </mxCell>
        <mxCell id="juT-ESsIJ_UsiJBfhcRe-158" style="edgeStyle=orthogonalEdgeStyle;rounded=0;orthogonalLoop=1;jettySize=auto;html=1;exitX=0.5;exitY=1;exitDx=0;exitDy=0;" edge="1" parent="1" source="juT-ESsIJ_UsiJBfhcRe-147" target="juT-ESsIJ_UsiJBfhcRe-150">
          <mxGeometry relative="1" as="geometry" />
        </mxCell>
        <mxCell id="juT-ESsIJ_UsiJBfhcRe-147" value="setShift()" style="rounded=1;whiteSpace=wrap;html=1;" vertex="1" parent="1">
          <mxGeometry x="1090" y="-250" width="120" height="60" as="geometry" />
        </mxCell>
        <mxCell id="juT-ESsIJ_UsiJBfhcRe-149" style="edgeStyle=orthogonalEdgeStyle;rounded=0;orthogonalLoop=1;jettySize=auto;html=1;exitX=0;exitY=0.5;exitDx=0;exitDy=0;entryX=1;entryY=0.5;entryDx=0;entryDy=0;" edge="1" parent="1" source="juT-ESsIJ_UsiJBfhcRe-150" target="juT-ESsIJ_UsiJBfhcRe-152">
          <mxGeometry relative="1" as="geometry" />
        </mxCell>
        <mxCell id="juT-ESsIJ_UsiJBfhcRe-150" value="getShift()" style="rounded=1;whiteSpace=wrap;html=1;" vertex="1" parent="1">
          <mxGeometry x="1090" y="-170" width="120" height="60" as="geometry" />
        </mxCell>
        <mxCell id="juT-ESsIJ_UsiJBfhcRe-152" value="getPayRate()" style="rounded=1;whiteSpace=wrap;html=1;" vertex="1" parent="1">
          <mxGeometry x="950" y="-170" width="120" height="60" as="geometry" />
        </mxCell>
        <mxCell id="juT-ESsIJ_UsiJBfhcRe-157" value="" style="edgeStyle=orthogonalEdgeStyle;rounded=0;orthogonalLoop=1;jettySize=auto;html=1;exitX=0.5;exitY=1;exitDx=0;exitDy=0;" edge="1" parent="1" source="juT-ESsIJ_UsiJBfhcRe-152" target="juT-ESsIJ_UsiJBfhcRe-153">
          <mxGeometry relative="1" as="geometry">
            <mxPoint x="1010.1764705882356" y="55" as="targetPoint" />
            <mxPoint x="1010" y="-110" as="sourcePoint" />
          </mxGeometry>
        </mxCell>
        <mxCell id="juT-ESsIJ_UsiJBfhcRe-196" style="edgeStyle=orthogonalEdgeStyle;rounded=0;orthogonalLoop=1;jettySize=auto;html=1;exitX=1;exitY=0.5;exitDx=0;exitDy=0;entryX=0;entryY=0.5;entryDx=0;entryDy=0;" edge="1" parent="1" source="juT-ESsIJ_UsiJBfhcRe-153" target="juT-ESsIJ_UsiJBfhcRe-159">
          <mxGeometry relative="1" as="geometry">
            <Array as="points">
              <mxPoint x="1250" y="-50" />
              <mxPoint x="1250" y="-410" />
            </Array>
          </mxGeometry>
        </mxCell>
        <mxCell id="juT-ESsIJ_UsiJBfhcRe-153" value="print message" style="shape=parallelogram;perimeter=parallelogramPerimeter;whiteSpace=wrap;html=1;fixedSize=1;" vertex="1" parent="1">
          <mxGeometry x="950" y="-80" width="120" height="60" as="geometry" />
        </mxCell>
        <mxCell id="juT-ESsIJ_UsiJBfhcRe-159" value="TeamLeader()" style="rounded=1;whiteSpace=wrap;html=1;" vertex="1" parent="1">
          <mxGeometry x="1300" y="-440" width="120" height="60" as="geometry" />
        </mxCell>
        <mxCell id="juT-ESsIJ_UsiJBfhcRe-160" value="" style="endArrow=classic;html=1;rounded=0;entryX=0.5;entryY=0;entryDx=0;entryDy=0;" edge="1" parent="1" source="juT-ESsIJ_UsiJBfhcRe-159" target="juT-ESsIJ_UsiJBfhcRe-162">
          <mxGeometry width="50" height="50" relative="1" as="geometry">
            <mxPoint x="1350" y="-330" as="sourcePoint" />
            <mxPoint x="1360" y="-320" as="targetPoint" />
            <Array as="points" />
          </mxGeometry>
        </mxCell>
        <mxCell id="juT-ESsIJ_UsiJBfhcRe-161" style="edgeStyle=orthogonalEdgeStyle;rounded=0;orthogonalLoop=1;jettySize=auto;html=1;exitX=0.5;exitY=1;exitDx=0;exitDy=0;" edge="1" parent="1" source="juT-ESsIJ_UsiJBfhcRe-162" target="juT-ESsIJ_UsiJBfhcRe-168">
          <mxGeometry relative="1" as="geometry" />
        </mxCell>
        <mxCell id="juT-ESsIJ_UsiJBfhcRe-162" value="print message" style="shape=parallelogram;perimeter=parallelogramPerimeter;whiteSpace=wrap;html=1;fixedSize=1;" vertex="1" parent="1">
          <mxGeometry x="1300" y="-350" width="120" height="60" as="geometry" />
        </mxCell>
        <mxCell id="juT-ESsIJ_UsiJBfhcRe-179" style="edgeStyle=orthogonalEdgeStyle;rounded=0;orthogonalLoop=1;jettySize=auto;html=1;exitX=1;exitY=0.5;exitDx=0;exitDy=0;" edge="1" parent="1" source="juT-ESsIJ_UsiJBfhcRe-164" target="juT-ESsIJ_UsiJBfhcRe-176">
          <mxGeometry relative="1" as="geometry" />
        </mxCell>
        <mxCell id="juT-ESsIJ_UsiJBfhcRe-164" value="getShift()" style="rounded=1;whiteSpace=wrap;html=1;" vertex="1" parent="1">
          <mxGeometry x="1440" y="-440" width="120" height="60" as="geometry" />
        </mxCell>
        <mxCell id="juT-ESsIJ_UsiJBfhcRe-165" style="edgeStyle=orthogonalEdgeStyle;rounded=0;orthogonalLoop=1;jettySize=auto;html=1;entryX=1;entryY=0.5;entryDx=0;entryDy=0;" edge="1" parent="1" source="juT-ESsIJ_UsiJBfhcRe-166" target="juT-ESsIJ_UsiJBfhcRe-162">
          <mxGeometry relative="1" as="geometry" />
        </mxCell>
        <mxCell id="juT-ESsIJ_UsiJBfhcRe-166" value="getTrainingComplete()" style="rounded=1;whiteSpace=wrap;html=1;" vertex="1" parent="1">
          <mxGeometry x="1440" y="-350" width="120" height="60" as="geometry" />
        </mxCell>
        <mxCell id="juT-ESsIJ_UsiJBfhcRe-167" style="edgeStyle=orthogonalEdgeStyle;rounded=0;orthogonalLoop=1;jettySize=auto;html=1;exitX=1;exitY=0.5;exitDx=0;exitDy=0;entryX=0;entryY=0.5;entryDx=0;entryDy=0;" edge="1" parent="1" source="juT-ESsIJ_UsiJBfhcRe-168" target="juT-ESsIJ_UsiJBfhcRe-170">
          <mxGeometry relative="1" as="geometry" />
        </mxCell>
        <mxCell id="juT-ESsIJ_UsiJBfhcRe-168" value="setPayRate()" style="rounded=1;whiteSpace=wrap;html=1;" vertex="1" parent="1">
          <mxGeometry x="1300" y="-250" width="120" height="60" as="geometry" />
        </mxCell>
        <mxCell id="juT-ESsIJ_UsiJBfhcRe-189" style="edgeStyle=orthogonalEdgeStyle;rounded=0;orthogonalLoop=1;jettySize=auto;html=1;exitX=1;exitY=0.5;exitDx=0;exitDy=0;" edge="1" parent="1" source="juT-ESsIJ_UsiJBfhcRe-170" target="juT-ESsIJ_UsiJBfhcRe-183">
          <mxGeometry relative="1" as="geometry" />
        </mxCell>
        <mxCell id="juT-ESsIJ_UsiJBfhcRe-170" value="setShift()" style="rounded=1;whiteSpace=wrap;html=1;" vertex="1" parent="1">
          <mxGeometry x="1440" y="-250" width="120" height="60" as="geometry" />
        </mxCell>
        <mxCell id="juT-ESsIJ_UsiJBfhcRe-171" style="edgeStyle=orthogonalEdgeStyle;rounded=0;orthogonalLoop=1;jettySize=auto;html=1;exitX=0;exitY=0.5;exitDx=0;exitDy=0;entryX=1;entryY=0.5;entryDx=0;entryDy=0;" edge="1" parent="1" source="juT-ESsIJ_UsiJBfhcRe-172" target="juT-ESsIJ_UsiJBfhcRe-173">
          <mxGeometry relative="1" as="geometry" />
        </mxCell>
        <mxCell id="juT-ESsIJ_UsiJBfhcRe-172" value="getShift()" style="rounded=1;whiteSpace=wrap;html=1;" vertex="1" parent="1">
          <mxGeometry x="1440" y="-170" width="120" height="60" as="geometry" />
        </mxCell>
        <mxCell id="juT-ESsIJ_UsiJBfhcRe-173" value="getPayRate()" style="rounded=1;whiteSpace=wrap;html=1;" vertex="1" parent="1">
          <mxGeometry x="1300" y="-170" width="120" height="60" as="geometry" />
        </mxCell>
        <mxCell id="juT-ESsIJ_UsiJBfhcRe-174" value="" style="edgeStyle=orthogonalEdgeStyle;rounded=0;orthogonalLoop=1;jettySize=auto;html=1;exitX=0.5;exitY=1;exitDx=0;exitDy=0;" edge="1" parent="1" source="juT-ESsIJ_UsiJBfhcRe-173" target="juT-ESsIJ_UsiJBfhcRe-175">
          <mxGeometry relative="1" as="geometry">
            <mxPoint x="1360.1764705882356" y="55" as="targetPoint" />
            <mxPoint x="1360" y="-110" as="sourcePoint" />
          </mxGeometry>
        </mxCell>
        <mxCell id="juT-ESsIJ_UsiJBfhcRe-175" value="print message" style="shape=parallelogram;perimeter=parallelogramPerimeter;whiteSpace=wrap;html=1;fixedSize=1;" vertex="1" parent="1">
          <mxGeometry x="1300" y="-80" width="120" height="60" as="geometry" />
        </mxCell>
        <mxCell id="juT-ESsIJ_UsiJBfhcRe-180" style="edgeStyle=orthogonalEdgeStyle;rounded=0;orthogonalLoop=1;jettySize=auto;html=1;exitX=1;exitY=0.5;exitDx=0;exitDy=0;" edge="1" parent="1" source="juT-ESsIJ_UsiJBfhcRe-176" target="juT-ESsIJ_UsiJBfhcRe-178">
          <mxGeometry relative="1" as="geometry" />
        </mxCell>
        <mxCell id="juT-ESsIJ_UsiJBfhcRe-176" value="getPayRate()" style="rounded=1;whiteSpace=wrap;html=1;" vertex="1" parent="1">
          <mxGeometry x="1580" y="-440" width="120" height="60" as="geometry" />
        </mxCell>
        <mxCell id="juT-ESsIJ_UsiJBfhcRe-182" style="edgeStyle=orthogonalEdgeStyle;rounded=0;orthogonalLoop=1;jettySize=auto;html=1;exitX=0;exitY=0.5;exitDx=0;exitDy=0;" edge="1" parent="1" source="juT-ESsIJ_UsiJBfhcRe-177" target="juT-ESsIJ_UsiJBfhcRe-166">
          <mxGeometry relative="1" as="geometry" />
        </mxCell>
        <mxCell id="juT-ESsIJ_UsiJBfhcRe-177" value="getTrainingReq()" style="rounded=1;whiteSpace=wrap;html=1;" vertex="1" parent="1">
          <mxGeometry x="1580" y="-350" width="120" height="60" as="geometry" />
        </mxCell>
        <mxCell id="juT-ESsIJ_UsiJBfhcRe-181" style="edgeStyle=orthogonalEdgeStyle;rounded=0;orthogonalLoop=1;jettySize=auto;html=1;exitX=0.5;exitY=1;exitDx=0;exitDy=0;entryX=1;entryY=0.5;entryDx=0;entryDy=0;" edge="1" parent="1" source="juT-ESsIJ_UsiJBfhcRe-178" target="juT-ESsIJ_UsiJBfhcRe-177">
          <mxGeometry relative="1" as="geometry" />
        </mxCell>
        <mxCell id="juT-ESsIJ_UsiJBfhcRe-178" value="getMBonus()" style="rounded=1;whiteSpace=wrap;html=1;" vertex="1" parent="1">
          <mxGeometry x="1720" y="-440" width="130" height="60" as="geometry" />
        </mxCell>
        <mxCell id="juT-ESsIJ_UsiJBfhcRe-190" style="edgeStyle=orthogonalEdgeStyle;rounded=0;orthogonalLoop=1;jettySize=auto;html=1;exitX=1;exitY=0.5;exitDx=0;exitDy=0;" edge="1" parent="1" source="juT-ESsIJ_UsiJBfhcRe-183" target="juT-ESsIJ_UsiJBfhcRe-184">
          <mxGeometry relative="1" as="geometry" />
        </mxCell>
        <mxCell id="juT-ESsIJ_UsiJBfhcRe-183" value="setMBonus()" style="rounded=1;whiteSpace=wrap;html=1;" vertex="1" parent="1">
          <mxGeometry x="1580" y="-250" width="120" height="60" as="geometry" />
        </mxCell>
        <mxCell id="juT-ESsIJ_UsiJBfhcRe-191" style="edgeStyle=orthogonalEdgeStyle;rounded=0;orthogonalLoop=1;jettySize=auto;html=1;exitX=1;exitY=0.5;exitDx=0;exitDy=0;" edge="1" parent="1" source="juT-ESsIJ_UsiJBfhcRe-184" target="juT-ESsIJ_UsiJBfhcRe-185">
          <mxGeometry relative="1" as="geometry" />
        </mxCell>
        <mxCell id="juT-ESsIJ_UsiJBfhcRe-184" value="setTrainingReq()" style="rounded=1;whiteSpace=wrap;html=1;" vertex="1" parent="1">
          <mxGeometry x="1720" y="-250" width="120" height="60" as="geometry" />
        </mxCell>
        <mxCell id="juT-ESsIJ_UsiJBfhcRe-192" style="edgeStyle=orthogonalEdgeStyle;rounded=0;orthogonalLoop=1;jettySize=auto;html=1;exitX=0.5;exitY=1;exitDx=0;exitDy=0;" edge="1" parent="1" source="juT-ESsIJ_UsiJBfhcRe-185" target="juT-ESsIJ_UsiJBfhcRe-188">
          <mxGeometry relative="1" as="geometry" />
        </mxCell>
        <mxCell id="juT-ESsIJ_UsiJBfhcRe-185" value="setTrianingComplete()" style="rounded=1;whiteSpace=wrap;html=1;" vertex="1" parent="1">
          <mxGeometry x="1860" y="-250" width="130" height="60" as="geometry" />
        </mxCell>
        <mxCell id="juT-ESsIJ_UsiJBfhcRe-195" style="edgeStyle=orthogonalEdgeStyle;rounded=0;orthogonalLoop=1;jettySize=auto;html=1;exitX=0;exitY=0.5;exitDx=0;exitDy=0;" edge="1" parent="1" source="juT-ESsIJ_UsiJBfhcRe-186" target="juT-ESsIJ_UsiJBfhcRe-172">
          <mxGeometry relative="1" as="geometry" />
        </mxCell>
        <mxCell id="juT-ESsIJ_UsiJBfhcRe-186" value="getMBonus()" style="rounded=1;whiteSpace=wrap;html=1;" vertex="1" parent="1">
          <mxGeometry x="1580" y="-170" width="120" height="60" as="geometry" />
        </mxCell>
        <mxCell id="juT-ESsIJ_UsiJBfhcRe-194" style="edgeStyle=orthogonalEdgeStyle;rounded=0;orthogonalLoop=1;jettySize=auto;html=1;exitX=0;exitY=0.5;exitDx=0;exitDy=0;" edge="1" parent="1" source="juT-ESsIJ_UsiJBfhcRe-187" target="juT-ESsIJ_UsiJBfhcRe-186">
          <mxGeometry relative="1" as="geometry" />
        </mxCell>
        <mxCell id="juT-ESsIJ_UsiJBfhcRe-187" value="getTrainingReq()" style="rounded=1;whiteSpace=wrap;html=1;" vertex="1" parent="1">
          <mxGeometry x="1720" y="-170" width="120" height="60" as="geometry" />
        </mxCell>
        <mxCell id="juT-ESsIJ_UsiJBfhcRe-193" style="edgeStyle=orthogonalEdgeStyle;rounded=0;orthogonalLoop=1;jettySize=auto;html=1;exitX=0;exitY=0.5;exitDx=0;exitDy=0;" edge="1" parent="1" source="juT-ESsIJ_UsiJBfhcRe-188" target="juT-ESsIJ_UsiJBfhcRe-187">
          <mxGeometry relative="1" as="geometry" />
        </mxCell>
        <mxCell id="juT-ESsIJ_UsiJBfhcRe-188" value="getTrainingComplete()" style="rounded=1;whiteSpace=wrap;html=1;" vertex="1" parent="1">
          <mxGeometry x="1860" y="-170" width="130" height="60" as="geometry" />
        </mxCell>
        <mxCell id="juT-ESsIJ_UsiJBfhcRe-199" value="frame" style="shape=umlFrame;whiteSpace=wrap;html=1;rounded=0;shadow=0;comic=0;labelBackgroundColor=none;strokeWidth=1;fontFamily=Verdana;fontSize=10;align=center;" vertex="1" parent="1">
          <mxGeometry x="880" y="-1080" width="1220" height="1070" as="geometry" />
        </mxCell>
      </root>
    </mxGraphModel>
  </diagram>
</mxfile>
